<svg xmlns="http://www.w3.org/2000/svg" viewBox="0 0 100 100" preserveAspectRatio="xMidYMid" width="66" height="66" style="shape-rendering: auto; display: block; background: transparent;" xmlns:xlink="http://www.w3.org/1999/xlink"><g><g transform="rotate(0 50 50)">
  <rect fill="#000000" height="15" width="3" ry="7.5" rx="1.5" y="8.5" x="48.5">
    <animate repeatCount="indefinite" begin="-1.411764705882353s" dur="1.4705882352941175s" keyTimes="0;1" values="1;0" attributeName="opacity"></animate>
  </rect>
</g><g transform="rotate(14.4 50 50)">
  <rect fill="#000000" height="15" width="3" ry="7.5" rx="1.5" y="8.5" x="48.5">
    <animate repeatCount="indefinite" begin="-1.3529411764705883s" dur="1.4705882352941175s" keyTimes="0;1" values="1;0" attributeName="opacity"></animate>
  </rect>
</g><g transform="rotate(28.8 50 50)">
  <rect fill="#000000" height="15" width="3" ry="7.5" rx="1.5" y="8.5" x="48.5">
    <animate repeatCount="indefinite" begin="-1.2941176470588236s" dur="1.4705882352941175s" keyTimes="0;1" values="1;0" attributeName="opacity"></animate>
  </rect>
</g><g transform="rotate(43.2 50 50)">
  <rect fill="#000000" height="15" width="3" ry="7.5" rx="1.5" y="8.5" x="48.5">
    <animate repeatCount="indefinite" begin="-1.2352941176470589s" dur="1.4705882352941175s" keyTimes="0;1" values="1;0" attributeName="opacity"></animate>
  </rect>
</g><g transform="rotate(57.6 50 50)">
  <rect fill="#000000" height="15" width="3" ry="7.5" rx="1.5" y="8.5" x="48.5">
    <animate repeatCount="indefinite" begin="-1.1764705882352942s" dur="1.4705882352941175s" keyTimes="0;1" values="1;0" attributeName="opacity"></animate>
  </rect>
</g><g transform="rotate(72 50 50)">
  <rect fill="#000000" height="15" width="3" ry="7.5" rx="1.5" y="8.5" x="48.5">
    <animate repeatCount="indefinite" begin="-1.1176470588235294s" dur="1.4705882352941175s" keyTimes="0;1" values="1;0" attributeName="opacity"></animate>
  </rect>
</g><g transform="rotate(86.4 50 50)">
  <rect fill="#000000" height="15" width="3" ry="7.5" rx="1.5" y="8.5" x="48.5">
    <animate repeatCount="indefinite" begin="-1.0588235294117647s" dur="1.4705882352941175s" keyTimes="0;1" values="1;0" attributeName="opacity"></animate>
  </rect>
</g><g transform="rotate(100.8 50 50)">
  <rect fill="#000000" height="15" width="3" ry="7.5" rx="1.5" y="8.5" x="48.5">
    <animate repeatCount="indefinite" begin="-1s" dur="1.4705882352941175s" keyTimes="0;1" values="1;0" attributeName="opacity"></animate>
  </rect>
</g><g transform="rotate(115.2 50 50)">
  <rect fill="#000000" height="15" width="3" ry="7.5" rx="1.5" y="8.5" x="48.5">
    <animate repeatCount="indefinite" begin="-0.9411764705882353s" dur="1.4705882352941175s" keyTimes="0;1" values="1;0" attributeName="opacity"></animate>
  </rect>
</g><g transform="rotate(129.6 50 50)">
  <rect fill="#000000" height="15" width="3" ry="7.5" rx="1.5" y="8.5" x="48.5">
    <animate repeatCount="indefinite" begin="-0.8823529411764706s" dur="1.4705882352941175s" keyTimes="0;1" values="1;0" attributeName="opacity"></animate>
  </rect>
</g><g transform="rotate(144 50 50)">
  <rect fill="#000000" height="15" width="3" ry="7.5" rx="1.5" y="8.5" x="48.5">
    <animate repeatCount="indefinite" begin="-0.8235294117647058s" dur="1.4705882352941175s" keyTimes="0;1" values="1;0" attributeName="opacity"></animate>
  </rect>
</g><g transform="rotate(158.4 50 50)">
  <rect fill="#000000" height="15" width="3" ry="7.5" rx="1.5" y="8.5" x="48.5">
    <animate repeatCount="indefinite" begin="-0.7647058823529411s" dur="1.4705882352941175s" keyTimes="0;1" values="1;0" attributeName="opacity"></animate>
  </rect>
</g><g transform="rotate(172.8 50 50)">
  <rect fill="#000000" height="15" width="3" ry="7.5" rx="1.5" y="8.5" x="48.5">
    <animate repeatCount="indefinite" begin="-0.7058823529411765s" dur="1.4705882352941175s" keyTimes="0;1" values="1;0" attributeName="opacity"></animate>
  </rect>
</g><g transform="rotate(187.2 50 50)">
  <rect fill="#000000" height="15" width="3" ry="7.5" rx="1.5" y="8.5" x="48.5">
    <animate repeatCount="indefinite" begin="-0.6470588235294118s" dur="1.4705882352941175s" keyTimes="0;1" values="1;0" attributeName="opacity"></animate>
  </rect>
</g><g transform="rotate(201.6 50 50)">
  <rect fill="#000000" height="15" width="3" ry="7.5" rx="1.5" y="8.5" x="48.5">
    <animate repeatCount="indefinite" begin="-0.5882352941176471s" dur="1.4705882352941175s" keyTimes="0;1" values="1;0" attributeName="opacity"></animate>
  </rect>
</g><g transform="rotate(216 50 50)">
  <rect fill="#000000" height="15" width="3" ry="7.5" rx="1.5" y="8.5" x="48.5">
    <animate repeatCount="indefinite" begin="-0.5294117647058824s" dur="1.4705882352941175s" keyTimes="0;1" values="1;0" attributeName="opacity"></animate>
  </rect>
</g><g transform="rotate(230.4 50 50)">
  <rect fill="#000000" height="15" width="3" ry="7.5" rx="1.5" y="8.5" x="48.5">
    <animate repeatCount="indefinite" begin="-0.47058823529411764s" dur="1.4705882352941175s" keyTimes="0;1" values="1;0" attributeName="opacity"></animate>
  </rect>
</g><g transform="rotate(244.8 50 50)">
  <rect fill="#000000" height="15" width="3" ry="7.5" rx="1.5" y="8.5" x="48.5">
    <animate repeatCount="indefinite" begin="-0.4117647058823529s" dur="1.4705882352941175s" keyTimes="0;1" values="1;0" attributeName="opacity"></animate>
  </rect>
</g><g transform="rotate(259.2 50 50)">
  <rect fill="#000000" height="15" width="3" ry="7.5" rx="1.5" y="8.5" x="48.5">
    <animate repeatCount="indefinite" begin="-0.35294117647058826s" dur="1.4705882352941175s" keyTimes="0;1" values="1;0" attributeName="opacity"></animate>
  </rect>
</g><g transform="rotate(273.6 50 50)">
  <rect fill="#000000" height="15" width="3" ry="7.5" rx="1.5" y="8.5" x="48.5">
    <animate repeatCount="indefinite" begin="-0.29411764705882354s" dur="1.4705882352941175s" keyTimes="0;1" values="1;0" attributeName="opacity"></animate>
  </rect>
</g><g transform="rotate(288 50 50)">
  <rect fill="#000000" height="15" width="3" ry="7.5" rx="1.5" y="8.5" x="48.5">
    <animate repeatCount="indefinite" begin="-0.23529411764705882s" dur="1.4705882352941175s" keyTimes="0;1" values="1;0" attributeName="opacity"></animate>
  </rect>
</g><g transform="rotate(302.4 50 50)">
  <rect fill="#000000" height="15" width="3" ry="7.5" rx="1.5" y="8.5" x="48.5">
    <animate repeatCount="indefinite" begin="-0.17647058823529413s" dur="1.4705882352941175s" keyTimes="0;1" values="1;0" attributeName="opacity"></animate>
  </rect>
</g><g transform="rotate(316.8 50 50)">
  <rect fill="#000000" height="15" width="3" ry="7.5" rx="1.5" y="8.5" x="48.5">
    <animate repeatCount="indefinite" begin="-0.11764705882352941s" dur="1.4705882352941175s" keyTimes="0;1" values="1;0" attributeName="opacity"></animate>
  </rect>
</g><g transform="rotate(331.2 50 50)">
  <rect fill="#000000" height="15" width="3" ry="7.5" rx="1.5" y="8.5" x="48.5">
    <animate repeatCount="indefinite" begin="-0.058823529411764705s" dur="1.4705882352941175s" keyTimes="0;1" values="1;0" attributeName="opacity"></animate>
  </rect>
</g><g transform="rotate(345.6 50 50)">
  <rect fill="#000000" height="15" width="3" ry="7.5" rx="1.5" y="8.5" x="48.5">
    <animate repeatCount="indefinite" begin="0s" dur="1.4705882352941175s" keyTimes="0;1" values="1;0" attributeName="opacity"></animate>
  </rect>
</g><g></g></g><!-- [ldio] generated by https://loading.io --></svg>